<svg xmlns="http://www.w3.org/2000/svg" xmlns:xlink="http://www.w3.org/1999/xlink" width="182.721" height="110" viewBox="0 0 182.721 110">
  <defs>
    <linearGradient id="linear-gradient" y1="0.5" x2="1" y2="0.5" gradientUnits="objectBoundingBox">
      <stop offset="0" stop-color="#d40070"/>
      <stop offset="1" stop-color="#c87650"/>
    </linearGradient>
  </defs>
  <g id="logo" transform="translate(0.5)">
    <path id="Path_106" data-name="Path 106" d="M80.442,113.6H90.7l.319.452v12.574l-.319.452H53.38a32.7,32.7,0,0,1-12.361-2.419Q25.987,115.448,26,101.478V99.272q0-8.653,6.619-16.561,8.892-9.291,19.219-9.277H54.71l3.748.452a25.808,25.808,0,0,1,8.507,3.137V68.011l.452-.877H79.99l.452.877ZM34.347,48.1q9.49,0,12.813,9.277l.452,6.194v1.542l-.452.452h-.452c-7.1,0-11.457-3.536-13.026-10.607V48.525C33.682,48.233,33.9,48.1,34.347,48.1ZM65.981,96.162c-2.711-6.486-6.991-9.7-12.813-9.7l-4.413.877c-5.9,2.844-8.826,6.965-8.826,12.361v1.329a15.081,15.081,0,0,0,.665,3.987q3.19,8.174,11.7,8.161H66.645V101.9A21.8,21.8,0,0,0,65.981,96.162ZM70.34,48.1l.213.213v1.994q0,9.57-4.413,12.361c-2.206,1.914-5.237,2.871-9.065,2.871l-.452-.452V60.222q0-7.616,7.736-11.032A15.558,15.558,0,0,1,70.34,48.1Zm48.62,24.882q13.517,0,22.755,12.148,4.625,6.5,4.625,16.109v12.148h7.5l.452.452v12.813l-.452.452H84.084l-.452-.452V113.839l.452-.452H95.355a25.045,25.045,0,0,1-3.536-13.238q0-15.79,15.445-24.3A27.394,27.394,0,0,1,118.96,72.982Zm-13.238,27.38v.213c0,5.476,3,9.676,9.065,12.574l1.994.213h15.684V100.123a13.117,13.117,0,0,0-3.748-9.49c-2.9-2.951-6.061-4.413-9.49-4.413-6.539.479-10.9,3.934-13.026,10.367ZM126.8,51.8h.452l.452.452v3.987q0,8.732-7.736,12.148a29.205,29.205,0,0,1-5.955.877l-.213-.213V65.964q0-10.527,8.613-13.478A12.356,12.356,0,0,1,126.8,51.8Zm55.319,28.922h15.232l.452.452q0,9.211-8.4,12.361l-5.077.452h-3.536c-6.779.744-10.155,4.041-10.155,9.942v.213c0,3.456,1.834,6.406,5.529,8.826a5.525,5.525,0,0,0,2.419.452H207.3l.452.452v.665q0,9.45-9.277,12.361l-2.206.213H149.212l-.452-.452V113.839l.452-.452h9.942a25.968,25.968,0,0,1-1.994-9.7v-1.116c0-6.061,2.366-11.457,7.071-16.109Q170.85,80.717,182.121,80.717Z" transform="translate(-26 -42.305)" fill="url(#linear-gradient)"/>
    <line id="Line_11" data-name="Line 11" x2="31.926" transform="translate(149.795 103.7)" fill="none" stroke="#1d1d1b" stroke-linecap="round" stroke-linejoin="round" stroke-miterlimit="10" stroke-width="1"/>
    <g id="Group_26" data-name="Group 26" transform="translate(42.107 98.436)">
      <path id="Path_107" data-name="Path 107" d="M189.212,400.927a2.312,2.312,0,0,1,1.754.744,2.411,2.411,0,0,1,.744,1.754v3.456a2.315,2.315,0,0,1-.691,1.648,2.27,2.27,0,0,1-1.648.691h-2.419a2.427,2.427,0,0,1-1.808-.744,2.469,2.469,0,0,1-.744-1.808v-1.834a.141.141,0,0,1,.16-.159h.558a.141.141,0,0,1,.16.159v1.834a1.549,1.549,0,0,0,.505,1.2,1.691,1.691,0,0,0,1.2.505h2.446a1.452,1.452,0,0,0,1.462-1.462v-.053h-1.622a2.312,2.312,0,0,1-1.754-.744,2.455,2.455,0,0,1-.744-1.754v-.877a2.312,2.312,0,0,1,.744-1.754A2.019,2.019,0,0,1,189.212,400.927Zm1.622,2.5a1.622,1.622,0,0,0-3.243,0v.877a1.634,1.634,0,0,0,1.622,1.622h1.622Zm-2.738-3.668a.141.141,0,0,1-.16-.159v-.638a.141.141,0,0,1,.16-.159h.585a.141.141,0,0,1,.159.159v.638a.141.141,0,0,1-.159.159Zm1.568,0a.141.141,0,0,1-.16-.159v-.638a.141.141,0,0,1,.16-.159h.585a.141.141,0,0,1,.16.159v.638a.141.141,0,0,1-.16.159Z" transform="translate(-184.4 -398.215)"/>
      <path id="Path_108" data-name="Path 108" d="M220.079,406.8a2.07,2.07,0,0,1,1.515.638,2.045,2.045,0,0,1,.611,1.515v1.887a1.718,1.718,0,0,1-.665,1.515,2.334,2.334,0,0,1-1.356.346H217.66a.141.141,0,0,1-.16-.159v-.558a.141.141,0,0,1,.16-.16h2.525a1.217,1.217,0,0,0,.93-.266,1.081,1.081,0,0,0,.213-.744v-1.887a1.313,1.313,0,0,0-.372-.9,1.266,1.266,0,0,0-.9-.372,1.822,1.822,0,0,0-1.116.266l-.213.159c-.027.027-.053.027-.106.027h-.027a.138.138,0,0,1-.106-.053l-.319-.452a.1.1,0,0,1-.027-.08v-.027a.138.138,0,0,1,.053-.106l.239-.16A2.811,2.811,0,0,1,220.079,406.8Z" transform="translate(-208.701 -404.089)"/>
      <path id="Path_109" data-name="Path 109" d="M243.989,405.406a1.378,1.378,0,0,1-1.489-1.489v-6.858a.141.141,0,0,1,.159-.159h.558a.141.141,0,0,1,.159.159v6.858a.564.564,0,0,0,.638.638h.585v.877h-.611Z" transform="translate(-227.055 -396.82)"/>
      <path id="Path_110" data-name="Path 110" d="M258.543,412.528h-.4a1.7,1.7,0,0,1-1.249-.478c-.027-.027-.08-.106-.16-.186a1.913,1.913,0,0,1-1.568.638H249v-.877h1.861v-4.466a.141.141,0,0,1,.159-.159h.558a.141.141,0,0,1,.16.159v1.09a4.938,4.938,0,0,1,3.03-1.648,2.162,2.162,0,0,1,1.754.744,2.826,2.826,0,0,1,.665,1.994v1.622a.561.561,0,0,0,.159.425.811.811,0,0,0,.638.213h.558Zm-2.206-3.137a2.277,2.277,0,0,0-.239-1.09,1.378,1.378,0,0,0-1.329-.771c-.8,0-1.808.638-3.03,1.941v2.206h3.456a.972.972,0,0,0,1.143-1.143Z" transform="translate(-231.827 -403.942)"/>
      <path id="Path_111" data-name="Path 111" d="M286.685,396.653a.141.141,0,0,1,.16.159v6.858a1.378,1.378,0,0,1-1.489,1.489H284v-.877h1.382a.564.564,0,0,0,.638-.638v-6.885a.141.141,0,0,1,.159-.16h.505Z" transform="translate(-257.523 -396.6)"/>
      <path id="Path_112" data-name="Path 112" d="M302.677,405.1a.141.141,0,0,1-.159.16h-.558a.141.141,0,0,1-.16-.16v-8.241a.141.141,0,0,1,.16-.16h.558a.141.141,0,0,1,.159.16Z" transform="translate(-270.592 -396.673)"/>
      <path id="Path_113" data-name="Path 113" d="M325.256,406.8a2.67,2.67,0,0,1,1.941.8,2.627,2.627,0,0,1,.8,1.941v1.143a2.078,2.078,0,0,1-.532,1.489,2.035,2.035,0,0,1-1.489.532h-2.419a.773.773,0,0,0-.665.319,1.21,1.21,0,0,0-.213.718,1.044,1.044,0,0,0,1.01,1.037h.718a.141.141,0,0,1,.16.159v.558a.141.141,0,0,1-.16.16h-.718a1.787,1.787,0,0,1-1.329-.558,1.846,1.846,0,0,1-.558-1.356,1.825,1.825,0,0,1,.505-1.356,1.645,1.645,0,0,1,1.249-.532h2.419a.972.972,0,0,0,1.143-1.143v-1.143a1.915,1.915,0,0,0-.532-1.329,1.787,1.787,0,0,0-1.329-.558,2.132,2.132,0,0,0-1.887.877l-.159.239a.143.143,0,0,1-.106.08c-.027,0-.053-.027-.106-.053l-.452-.319a.138.138,0,0,1-.053-.106v-.027a.1.1,0,0,1,.027-.08l.159-.239a2.836,2.836,0,0,1,1.223-.984A3.168,3.168,0,0,1,325.256,406.8Zm.213,6.672a.141.141,0,0,1,.159.159v.638a.141.141,0,0,1-.159.16h-.585a.141.141,0,0,1-.159-.16v-.638a.141.141,0,0,1,.159-.159Z" transform="translate(-285.275 -404.089)"/>
      <path id="Path_114" data-name="Path 114" d="M353.077,405.1a.141.141,0,0,1-.16.16h-.558a.141.141,0,0,1-.159-.16v-8.241a.141.141,0,0,1,.159-.16h.558a.141.141,0,0,1,.16.16Z" transform="translate(-307.594 -396.673)"/>
      <path id="Path_115" data-name="Path 115" d="M363.525,406.8a2.312,2.312,0,0,1,1.754.744A2.387,2.387,0,0,1,366,409.3v3.536a2.211,2.211,0,0,1-.691,1.622,2.27,2.27,0,0,1-1.648.691h-1.223a.141.141,0,0,1-.159-.159v-.558a.141.141,0,0,1,.159-.16h1.223a1.452,1.452,0,0,0,1.462-1.462v-.133H363.5a2.387,2.387,0,0,1-1.754-.718A2.456,2.456,0,0,1,361,410.2v-.877a2.312,2.312,0,0,1,.744-1.754A2.34,2.34,0,0,1,363.525,406.8Zm1.622,2.5a1.622,1.622,0,0,0-3.243,0v.877a1.546,1.546,0,0,0,.479,1.143,1.589,1.589,0,0,0,1.143.478h1.622v-2.5Z" transform="translate(-314.055 -404.089)"/>
      <path id="Path_116" data-name="Path 116" d="M386.672,406.655h-1.808v.452a2.078,2.078,0,0,1-.532,1.489,2.035,2.035,0,0,1-1.489.532h-.585a.141.141,0,0,1-.16-.16v-.558a.141.141,0,0,1,.16-.16h.585a.972.972,0,0,0,1.143-1.143v-5.928a.141.141,0,0,1,.16-.159h.558a.141.141,0,0,1,.159.159V405.8h1.808Zm-2.525-7.044a.141.141,0,0,1-.16-.16v-.691a.141.141,0,0,1,.16-.16h.585a.141.141,0,0,1,.16.16v.691a.141.141,0,0,1-.16.16Z" transform="translate(-329.546 -398.068)"/>
      <path id="Path_117" data-name="Path 117" d="M399.885,396.653a.141.141,0,0,1,.159.159v6.858a1.378,1.378,0,0,1-1.489,1.489H397.2v-.877h1.382a.564.564,0,0,0,.638-.638v-6.885a.141.141,0,0,1,.16-.16h.505Z" transform="translate(-340.632 -396.6)"/>
      <path id="Path_118" data-name="Path 118" d="M415.877,405.1a.141.141,0,0,1-.16.16h-.558a.141.141,0,0,1-.159-.16v-8.241a.141.141,0,0,1,.159-.16h.558a.141.141,0,0,1,.16.16Z" transform="translate(-353.7 -396.673)"/>
      <path id="Path_119" data-name="Path 119" d="M444.777,405.8v.877H442.81v.053a2.315,2.315,0,0,1-.691,1.648,2.255,2.255,0,0,1-1.622.691h-2.446a2.427,2.427,0,0,1-1.808-.744,2.469,2.469,0,0,1-.744-1.808v-1.834a.141.141,0,0,1,.16-.16h.558a.141.141,0,0,1,.159.16v1.834a1.549,1.549,0,0,0,.505,1.2,1.645,1.645,0,0,0,1.2.505h2.446a1.452,1.452,0,0,0,1.462-1.462v-.053h-1.622a2.312,2.312,0,0,1-1.755-.744,2.456,2.456,0,0,1-.744-1.754v-.877a2.312,2.312,0,0,1,.744-1.754,2.411,2.411,0,0,1,1.755-.744,2.369,2.369,0,0,1,1.781.744,2.465,2.465,0,0,1,.718,1.808v2.472h1.914Zm-2.818-2.472a1.623,1.623,0,0,0-.478-1.2,1.564,1.564,0,0,0-1.17-.478,1.634,1.634,0,0,0-1.621,1.622v.877a1.634,1.634,0,0,0,1.621,1.622h1.622v-2.446ZM439.2,399.61a.141.141,0,0,1-.16-.16v-.691a.141.141,0,0,1,.16-.16h.585a.141.141,0,0,1,.159.16v.691a.141.141,0,0,1-.159.16Zm1.595,0a.141.141,0,0,1-.159-.16v-.691a.141.141,0,0,1,.159-.16h.585a.141.141,0,0,1,.159.16v.691a.141.141,0,0,1-.159.16Z" transform="translate(-368.75 -398.068)"/>
      <path id="Path_120" data-name="Path 120" d="M473.152,413.336h-.4a1.75,1.75,0,0,1-1.3-.425l-.027-.027a.026.026,0,0,1-.027.027l-.027.027a1.486,1.486,0,0,1-1.09.4H468.5v-.877h1.808a.547.547,0,0,0,.452-.16.65.65,0,0,0,.159-.478V407.86a.141.141,0,0,1,.16-.159h.558a.141.141,0,0,1,.16.159v4.147a.331.331,0,0,0,.106.292.97.97,0,0,0,.718.186h.558v.851Zm-2.818,1.116a.141.141,0,0,1,.16.16v.691a.141.141,0,0,1-.16.16h-.585a.141.141,0,0,1-.16-.16v-.691a.141.141,0,0,1,.16-.16Zm1.568,0a.141.141,0,0,1,.16.16v.691a.141.141,0,0,1-.16.16h-.585a.141.141,0,0,1-.16-.16v-.691a.141.141,0,0,1,.16-.16Z" transform="translate(-392.978 -404.749)"/>
      <path id="Path_121" data-name="Path 121" d="M489.472,413.189h-.4a1.657,1.657,0,0,1-1.3-.452.026.026,0,0,1-.026-.027l-.053.053a1.486,1.486,0,0,1-1.09.4h-1.7v-.877h1.728a.564.564,0,0,0,.638-.638V407.66a.141.141,0,0,1,.16-.16h.558a.141.141,0,0,1,.16.16v4.147a.424.424,0,0,0,.106.319,1.023,1.023,0,0,0,.691.186h.558v.877Zm-1.489,1.037a.141.141,0,0,1,.16.16v.691a.141.141,0,0,1-.16.159H487.4a.141.141,0,0,1-.159-.159v-.691a.141.141,0,0,1,.159-.16Z" transform="translate(-405.018 -404.602)"/>
      <path id="Path_122" data-name="Path 122" d="M510.543,405.186h-.4a1.642,1.642,0,0,1-1.223-.479c-.027-.027-.08-.106-.159-.186a1.913,1.913,0,0,1-1.568.638H501v-.877h1.861v-7.523a.141.141,0,0,1,.16-.16h.558a.141.141,0,0,1,.16.16v4.2a4.989,4.989,0,0,1,3.057-1.648,2.162,2.162,0,0,1,1.755.744,2.871,2.871,0,0,1,.665,1.994v1.621a.561.561,0,0,0,.159.425.811.811,0,0,0,.638.213h.558v.877Zm-2.206-3.137a2.278,2.278,0,0,0-.239-1.09,1.365,1.365,0,0,0-1.3-.771,2.96,2.96,0,0,0-1.515.585,5.926,5.926,0,0,0-1.542,1.382v2.206h3.456a.972.972,0,0,0,1.143-1.143Z" transform="translate(-416.839 -396.6)"/>
      <path id="Path_123" data-name="Path 123" d="M539.35,401.019a.141.141,0,0,1,.16.159v3.987a1.487,1.487,0,0,1-.4,1.09,1.53,1.53,0,0,1-1.09.4H536v-.877h2.047a.548.548,0,0,0,.452-.159.65.65,0,0,0,.16-.479v-3.987a.141.141,0,0,1,.159-.16h.532Zm-1.356-1.409a.141.141,0,0,1-.16-.16v-.691a.141.141,0,0,1,.16-.16h.585a.141.141,0,0,1,.159.16v.691a.141.141,0,0,1-.159.16Zm2.153-1.01a.141.141,0,0,1,.159.16v.691a.141.141,0,0,1-.159.16h-.585a.141.141,0,0,1-.16-.16v-.691a.141.141,0,0,1,.16-.16Z" transform="translate(-442.535 -398.068)"/>
    </g>
    <g id="Group_27" data-name="Group 27" transform="translate(158.301 88.149)">
      <path id="Path_124" data-name="Path 124" d="M641.49,357.9a37.5,37.5,0,0,1-4.812,1.994c-1.622.558-3.27,1.063-4.944,1.489s-3.349.8-5.051,1.09a36.815,36.815,0,0,1-5.184.585,37.507,37.507,0,0,1,4.812-1.994c1.622-.558,3.27-1.063,4.944-1.489s3.349-.8,5.051-1.09A36.818,36.818,0,0,1,641.49,357.9Z" transform="translate(-621.5 -357.9)" fill="#1d1d1b"/>
    </g>
    <g id="Group_30" data-name="Group 30" transform="translate(65.048)">
      <g id="Group_28" data-name="Group 28" transform="translate(1.568)">
        <path id="Path_125" data-name="Path 125" d="M291.274,26.3A29.247,29.247,0,0,1,288,29.33a41.756,41.756,0,0,1-3.562,2.579c-1.223.8-2.472,1.568-3.775,2.26a26.637,26.637,0,0,1-4.067,1.808,29.247,29.247,0,0,1,3.27-3.03,41.76,41.76,0,0,1,3.562-2.579c1.223-.8,2.472-1.568,3.775-2.26A26.637,26.637,0,0,1,291.274,26.3Z" transform="translate(-276.6 -26.3)" fill="#1d1d1b"/>
      </g>
      <g id="Group_29" data-name="Group 29" transform="translate(0 0.984)">
        <path id="Path_126" data-name="Path 126" d="M287.421,30a14.185,14.185,0,0,1,1.09,1.808,16.117,16.117,0,0,1,.824,1.967,13.824,13.824,0,0,1,.532,2.127,7.939,7.939,0,0,1,.106,1.143,4.693,4.693,0,0,1,0,.611v.292l-.027.319a5.239,5.239,0,0,1-1.037,2.658,4.561,4.561,0,0,1-1.276,1.09,2.433,2.433,0,0,1-.372.186c-.133.053-.266.106-.372.159a2.728,2.728,0,0,1-.372.106l-.372.08-.186.027-.186.027-.372.027c-.133,0-.239.027-.372.027l-.346-.027c-.213-.027-.452-.027-.665-.053l-.611-.106a3.773,3.773,0,0,1-.585-.133l-.585-.159c-.372-.133-.718-.266-1.09-.4h-.053c.08.027.16.053.266.08a1.97,1.97,0,0,0,.558.027,1.711,1.711,0,0,0,1.01-.532,2.173,2.173,0,0,0,.319-.532c.027-.106.053-.186.08-.292v0c-.027.133-.053.292-.08.425a7.449,7.449,0,0,1-.452,1.3,9.829,9.829,0,0,1-1.329,2.127,7.087,7.087,0,0,1-2.02,1.7,5.128,5.128,0,0,1-2.844.665,7.169,7.169,0,0,1-.744-.106c-.239-.08-.478-.133-.691-.213A5.488,5.488,0,0,1,274,45.79c-.159-.133-.346-.266-.479-.4a3.215,3.215,0,0,1-.425-.425,7.647,7.647,0,0,1-.718-.9A10.8,10.8,0,0,1,270.7,40.1c.266.239.532.478.771.691l.771.691a16.014,16.014,0,0,0,1.542,1.2,3.833,3.833,0,0,0,2.791.9,2.323,2.323,0,0,0,.984-.505,5.967,5.967,0,0,0,.93-1.037,8.246,8.246,0,0,0,.718-1.356,3.831,3.831,0,0,0,.186-.611c.027-.053,0-.053.027-.08h0l.027-.106a3.291,3.291,0,0,1,.106-.425,2.657,2.657,0,0,1,.452-.744,2.4,2.4,0,0,1,1.435-.771,2.858,2.858,0,0,1,.824.027c.133.027.266.08.372.106l.08.027c.266.106.558.213.824.319l.4.133a2.726,2.726,0,0,0,.372.106l.372.08c.133.027.239.027.346.053l.16.027h.4a1.022,1.022,0,0,0,.691-.213,2.084,2.084,0,0,0,.611-.984,7.5,7.5,0,0,0,.372-1.648c.08-.611.133-1.249.159-1.887C287.447,32.765,287.421,31.435,287.421,30Z" transform="translate(-270.7 -30)" fill="#1d1d1b"/>
      </g>
    </g>
    <line id="Line_12" data-name="Line 12" x2="31.926" transform="translate(0 103.7)" fill="none" stroke="#1d1d1b" stroke-linecap="round" stroke-linejoin="round" stroke-miterlimit="10" stroke-width="1"/>
  </g>
</svg>
